<?xml version="1.0" encoding="utf-8"?>
<!DOCTYPE svg PUBLIC "-//W3C//DTD SVG 1.1//EN" "http://www.w3.org/Graphics/SVG/1.1/DTD/svg11.dtd">
<svg xmlns="http://www.w3.org/2000/svg" xml:space="preserve" width="551.643" height="551.13">
  <circle cx="276.078" cy="275.565" r="275.565" fill="#C5E4E9"/>
  <path fill="#010101" d="M327.401 470.398c-22.687 0-31.635-13.49-34.95-21.531l-.51-1.237H175.163V236.11h116.195c13.302 0 25.884 5.841 34.518 16.025l1.525 1.8 1.525-1.8c8.632-10.184 21.212-16.024 34.517-16.024h110.188v211.52H364.46l-.547 1.126c-3.927 8.082-13.892 21.641-36.512 21.641zM193.567 409.98h81.27c25.134 0 35.461 7.545 39.698 13.873l3.662 5.47V281.359c0-14.802-12.04-26.845-26.839-26.845h-97.791V409.98zm169.876-155.465c-14.801 0-26.842 12.042-26.842 26.845v147.172l3.573-4.556c7.284-9.286 20.67-13.995 39.785-13.995h75.269V254.515h-91.785z"/>
  <path fill="none" stroke="#010101" stroke-linecap="round" stroke-miterlimit="10" stroke-width="12" d="M326.605 225.326c-6.669-83.451-48.267-147.735-98.599-147.735-54.975 0-99.541 76.687-99.541 171.285 0 50.791 12.852 96.411 33.261 127.779"/>
  <path fill="none" stroke="#010101" stroke-linecap="round" stroke-miterlimit="10" stroke-width="12" d="M396.724 225.326c-11.478-83.452-83.059-147.735-169.667-147.735-94.599 0-171.286 76.687-171.286 171.286 0 71.461 43.769 132.691 105.956 158.374"/>
  <path fill="none" stroke="#010101" stroke-miterlimit="10" stroke-width="12" d="M63.726 197.141h325.588"/>
  <path fill="none" stroke="#010101" stroke-linecap="round" stroke-miterlimit="10" stroke-width="12" d="M71.649 318.801h90.726m64.682-241.21v147.735"/>
</svg>